<?xml version="1.0" encoding="UTF-8"?>
<svg width="278px" height="278px" viewBox="0 0 278 278" version="1.1" xmlns="http://www.w3.org/2000/svg" xmlns:xlink="http://www.w3.org/1999/xlink">
    <!-- Generator: Sketch 54.1 (76490) - https://sketchapp.com -->
    <title>logo / ADT</title>
    <desc>Created with Sketch.</desc>
    <g id="logo-/-ADT" stroke="none" stroke-width="1" fill="none" fill-rule="evenodd">
        <g id="page-1" fill-rule="nonzero">
            <polygon id="Path" fill="#0061AA" points="81.312 0 0 81.26 0 196.267 81.312 277.527 196.212 277.527 277.525 196.267 277.525 81.26 196.212 0"></polygon>
            <polygon id="Path" fill="#FFFFFF" points="211.29 113.301 211.29 183.694 191.7 183.694 191.7 113.301 165.21 113.301 165.21 94.085 238.007 94.085 238.007 113.301"></polygon>
            <path d="M211.29,113.301 L211.29,183.694 L191.7,183.694 L191.7,113.301 L165.21,113.301 L165.21,94.085 L238.007,94.085 L238.007,113.301 L211.29,113.301 Z M85.324,135.685 L74.914,155.893 L95.61,155.893 L85.323,135.685 L85.324,135.685 Z M109.818,183.694 L105.164,174.508 L65.484,174.508 L60.707,183.694 L39.518,183.694 L85.324,94.044 L131.006,183.694 L109.818,183.694 Z" id="Shape" fill="#FFFFFF"></path>
            <path d="M142.35,163.978 L131.482,163.978 L131.482,113.422 L142.351,113.422 C157.265,113.422 167.881,123.66 167.881,138.7 C167.881,153.74 157.265,163.978 142.351,163.978 M182.161,116.801 L161.71,116.801 L161.71,97.835 C155.906,95.255 149.37,93.832 142.35,93.832 L111.89,93.832 L111.89,138.472 L134.124,182.105 L134.934,183.695 L142.351,183.695 C168.134,183.695 187.471,164.609 187.471,138.7 C187.471,130.614 185.568,123.187 182.161,116.8" id="Shape" fill="#FFFFFF"></path>
        </g>
    </g>
</svg>