<svg width="25" height="26" viewBox="0 0 25 26" fill="none" xmlns="http://www.w3.org/2000/svg">
<path fill-rule="evenodd" clip-rule="evenodd" d="M16.3548 2.96235C15.6511 2.55955 14.8904 2.24497 14.0774 2.06041V0H10.3553V2.06041C6.62637 2.90548 3.84166 6.22662 3.84166 10.2044V14.6827C3.84166 14.9671 3.81607 15.2445 3.77419 15.5161L16.3548 2.96235ZM20.5363 14.4687V10.0484C20.5363 8.99539 20.33 7.99168 19.9639 7.06704L24.3226 2.7831L22.3443 0.83871L0 22.7975L1.97831 24.7419L4.79481 21.9749H23.334V19.225C21.6623 18.274 20.5362 16.5015 20.5362 14.4688L20.5363 14.4687ZM14.6774 23.0645C14.6774 24.6864 13.4576 26 11.9516 26C10.4456 26 9.22581 24.6864 9.22581 23.0645H14.6774Z" fill="#50BDA7"/>
</svg>
