<svg width="25" height="26" viewBox="0 0 25 26" fill="none" xmlns="http://www.w3.org/2000/svg">
    <path fill-rule="evenodd" clip-rule="evenodd" d="M16.3548 2.96235C15.6511 2.55955 14.8904 2.24497 14.0774 2.06041V0H10.3553V2.06041C6.62635 2.90548 3.84163 6.22662 3.84163 10.2044V14.6827C3.84163 14.9671 3.81604 15.2445 3.77417 15.5161L16.3548 2.96235Z" fill="white"/>
    <path fill-rule="evenodd" clip-rule="evenodd" d="M20.5363 14.4687V10.0483C20.5363 8.99539 20.33 7.99167 19.9639 7.06704L24.3226 2.7831L22.3443 0.838707L0 22.7975L1.97831 24.7419L4.79481 21.9749H23.334V19.225C21.6623 18.274 20.5362 16.5015 20.5362 14.4688L20.5363 14.4687Z" fill="white"/>
    <path fill-rule="evenodd" clip-rule="evenodd" d="M11.9516 26C13.4576 26 14.6774 24.6864 14.6774 23.0645H9.22583C9.22583 24.6864 10.4456 26 11.9516 26Z" fill="white"/>
</svg>
