<svg width="24" height="15" viewBox="0 0 24 15" fill="none" xmlns="http://www.w3.org/2000/svg">
<path fill-rule="evenodd" clip-rule="evenodd" d="M2.19888 9.16711C4.59866 12.2071 8.14866 13.9429 11.9924 13.9429C15.8378 13.9429 19.3864 12.2073 21.7847 9.16711C19.3867 6.12822 15.8378 4.39244 11.9924 4.39244C8.14866 4.39244 4.59866 6.128 2.1991 9.16711H2.19888ZM11.9924 14.8747C7.73888 14.8747 3.82244 12.8969 1.24622 9.448C1.18589 9.36677 1.15332 9.26829 1.15332 9.16711C1.15332 9.06594 1.18589 8.96745 1.24622 8.88622C3.82244 5.43867 7.74022 3.46067 11.9924 3.46067C16.2449 3.46067 20.1624 5.43867 22.7373 8.88622C22.7977 8.96745 22.8302 9.06594 22.8302 9.16711C22.8302 9.26829 22.7977 9.36677 22.7373 9.448C20.1624 12.8969 16.2462 14.8747 11.9924 14.8747Z" fill="#231F20"/>
<path fill-rule="evenodd" clip-rule="evenodd" d="M11.992 13.1284C9.19426 13.1284 6.9187 10.8151 6.9187 7.97178C6.9187 6.41044 7.60381 4.94889 8.79915 3.96511C8.84596 3.92634 8.90002 3.89727 8.95818 3.87962C9.01634 3.86196 9.07743 3.85606 9.1379 3.86227C9.19836 3.86847 9.25699 3.88666 9.31035 3.91576C9.36371 3.94487 9.41074 3.9843 9.4487 4.03178C9.52593 4.1276 9.56244 4.24992 9.55039 4.3724C9.53834 4.49488 9.47868 4.60773 9.38426 4.68667C8.40248 5.49467 7.84115 6.69133 7.84115 7.97178C7.84115 10.3013 9.70315 12.1967 11.992 12.1967C14.2809 12.1967 16.1429 10.3011 16.1429 7.97178C16.1429 6.69133 15.5816 5.49467 14.5998 4.68667C14.5054 4.60773 14.4457 4.49488 14.4337 4.3724C14.4216 4.24992 14.4581 4.1276 14.5354 4.03178C14.5733 3.9843 14.6204 3.94487 14.6737 3.91576C14.7271 3.88666 14.7857 3.86847 14.8462 3.86227C14.9066 3.85606 14.9677 3.86196 15.0259 3.87962C15.084 3.89727 15.1381 3.92634 15.1849 3.96511C16.38 4.94889 17.0654 6.41044 17.0654 7.97178C17.0654 10.8151 14.7896 13.1284 11.992 13.1284L12.3665 11.9262L11.992 13.1284Z" fill="#231F20"/>
<path fill-rule="evenodd" clip-rule="evenodd" d="M23.5213 5.55714C23.4022 5.55753 23.2877 5.51117 23.2024 5.42803C22.0314 4.29152 20.6939 3.34035 19.2359 2.60736C14.7806 0.371137 9.2026 0.371137 4.74482 2.60736C3.28735 3.34066 1.95014 4.2918 0.779265 5.42803C0.735648 5.47021 0.684094 5.50332 0.62759 5.52544C0.571086 5.54755 0.510755 5.55824 0.450092 5.55688C0.389429 5.55551 0.329639 5.54212 0.274186 5.51749C0.218734 5.49285 0.16872 5.45746 0.127043 5.41336C0.0422356 5.32374 -0.00381219 5.2043 -0.00110799 5.08095C0.00159621 4.95759 0.0528342 4.84028 0.141488 4.75447C1.3798 3.5541 2.79325 2.54879 4.33349 1.77291C9.0446 -0.591307 14.9388 -0.591307 19.647 1.77291C21.1879 2.54844 22.6018 3.55378 23.8404 4.75447C24.0248 4.93291 24.0315 5.22691 23.8548 5.41336C23.812 5.45879 23.7603 5.49498 23.703 5.5197C23.6457 5.54443 23.5839 5.55717 23.5215 5.55714" fill="#231F20"/>
</svg>
