<svg width="24" height="27" viewBox="0 0 24 27" fill="none" xmlns="http://www.w3.org/2000/svg">
<path fill-rule="evenodd" clip-rule="evenodd" d="M0.642857 4.8033L4.86031 0.399994H4.86053C6.76089 1.54072 9.28993 2.28711 12.0001 2.28711C14.7102 2.28711 17.2294 1.54072 19.1299 0.399994L23.3474 4.8033C20.7709 7.04256 21.7325 9.19878 22.7759 11.5386C23.3745 12.8808 24 14.2835 24 15.7968C24 18.8766 20.0712 25.2649 12 26.8C3.92883 25.2649 0 18.8767 0 15.7968C0 14.2844 0.623415 12.8828 1.21999 11.5415C2.26098 9.20093 3.22025 7.04416 0.642857 4.8033ZM13.6265 12.0324L11.9998 7.6291L10.373 12.0324H5.83415L9.73026 14.5485L8.10362 18.9422L11.9997 16.4261L15.8958 18.9422L14.2692 14.5485L18.1556 12.0324H13.6265Z" fill="#E76655"/>
</svg>
