<svg width="22" height="30" viewBox="0 0 22 30" fill="none" xmlns="http://www.w3.org/2000/svg">
<path fill-rule="evenodd" clip-rule="evenodd" d="M10.8027 0L11.1834 0.275679C11.9313 0.817296 15.9265 3.52538 21.0271 3.5887L21.6316 3.59649L21.9086 17.8052C21.9125 18.0224 21.9067 18.2357 21.897 18.4462L21.8922 18.5494C21.8377 19.4844 21.6469 20.3903 21.3196 21.2672L20.9951 22.1371L20.9428 22.0894C18.7195 26.6201 13.2895 29.0876 11.6 29.7626L11.383 29.8503L11.1612 29.7714C9.44934 29.1645 3.939 26.9162 1.53646 22.4849L1.49868 22.5248L1.12086 21.6637C0.759674 20.8006 0.533629 19.9031 0.442725 18.9712L0.433038 18.8631C0.4156 18.6585 0.402037 18.4462 0.397193 18.2289L0.121094 4.01927L0.725604 3.98809C5.82034 3.7241 9.70607 0.861132 10.4336 0.290291L10.8027 0ZM10.8492 2.39247C9.35343 3.41725 6.14197 5.2983 2.09447 5.81849L2.33472 18.1909C2.33763 18.3595 2.34926 18.5299 2.36379 18.6926L2.37251 18.7959C2.44226 19.5128 2.62245 20.2288 2.90726 20.9097L2.98477 21.087L3.23761 21.5527C5.13736 25.0576 9.47162 27.0419 11.3423 27.7618C13.1868 26.9679 17.4475 24.8102 19.2048 21.2273L19.4548 20.7178L19.5051 20.5844C19.7628 19.8927 19.9149 19.1699 19.9576 18.4345L19.9624 18.3419C19.9701 18.187 19.975 18.0175 19.9711 17.8441L19.7309 5.4717C15.664 5.11127 12.3818 3.35783 10.8492 2.39247ZM12.0476 19.4737V21.5789H9.95238V19.4737H12.0476ZM12.0476 9.47368V17.8947H9.95238V9.47368H12.0476Z" fill="#E76655"/>
</svg>
