<svg width="42" height="57" viewBox="0 0 42 57" fill="none" xmlns="http://www.w3.org/2000/svg">
<path fill-rule="evenodd" clip-rule="evenodd" d="M21.119 0.52379L20.3922 0L19.6875 0.551553C18.2986 1.63615 10.8804 7.0758 1.15406 7.57738L0 7.63661L0.527099 34.635C0.536347 35.0477 0.562239 35.4512 0.595529 35.8399L0.614024 36.0453C0.787567 37.8159 1.21911 39.5212 1.90865 41.1611L2.62994 42.7972L2.70207 42.7213C7.28873 51.1408 17.8085 55.4126 21.0765 56.5657L21.5 56.7156L21.9143 56.549C25.1397 55.2664 35.506 50.5782 39.7505 41.9699L39.8504 42.0606L40.4699 40.4077C41.0946 38.7416 41.459 37.0204 41.563 35.2439L41.5722 35.0477C41.5907 34.6479 41.6018 34.2426 41.5944 33.8298L41.0655 6.83334L39.9114 6.81853C30.174 6.69823 22.5468 1.55286 21.119 0.52379ZM23.9132 25.7844L21.0088 18L18.104 25.7844H10L16.9565 30.2326L14.0521 38L21.0086 33.5518L27.9651 38L25.0608 30.2326L32 25.7844H23.9132Z" fill="#E76655"/>
</svg>
