<svg width="24" height="33" viewBox="0 0 24 33" fill="none" xmlns="http://www.w3.org/2000/svg">
<path fill-rule="evenodd" clip-rule="evenodd" d="M12.185 0.302211L11.7656 0L11.3591 0.318229C10.5577 0.944008 6.27764 4.08251 0.665859 4.37191L0 4.40608L0.30412 19.9833C0.309455 20.2214 0.324394 20.4542 0.343602 20.6785L0.354273 20.797C0.454401 21.8186 0.703387 22.8025 1.10123 23.7486L1.51739 24.6926L1.55901 24.6489C4.20537 29.5067 10.2749 31.9713 12.1605 32.6366L12.4048 32.7231L12.6439 32.627C14.5048 31.887 20.4858 29.182 22.9348 24.2153L22.9924 24.2676L23.3499 23.314C23.7103 22.3527 23.9205 21.3596 23.9805 20.3346L23.9859 20.2214C23.9965 19.9908 24.0029 19.7569 23.9987 19.5187L23.6935 3.94262L23.0276 3.93408C17.4094 3.86467 13.0088 0.895953 12.185 0.302211ZM13.7972 14.8768L12.1214 10.3854L10.4455 14.8768H5.76969L9.78336 17.4432L8.10764 21.9248L12.1213 19.3584L16.135 21.9248L14.4593 17.4432L18.463 14.8768H13.7972Z" fill="white"/>
</svg>
